<svg xmlns="http://www.w3.org/2000/svg" width="1080" height="980" viewBox="0 0 1080 1000" xml:space="preserve">

<path style="stroke:none;stroke-width:1;stroke-dasharray:none;stroke-linecap:butt;stroke-dashoffset:0;stroke-linejoin:miter;stroke-miterlimit:4;fill:#fefefe;fill-opacity:0;fill-rule:nonzero;opacity:1" vector-effect="non-scaling-stroke" transform="matrix(.76 0 0 .69 88.31 259.37)" d="M0 0h1164v782H0z" fill="none"/>

<path style="stroke:none;stroke-width:1;stroke-dasharray:none;stroke-linecap:butt;stroke-dashoffset:0;stroke-linejoin:miter;stroke-miterlimit:4;fill:#010101;fill-rule:nonzero;opacity:1" vector-effect="non-scaling-stroke" transform="translate(106 284)" d="M0 0c182.77 0 182.77 0 193.234 9.215L195 11l2.328 2.254c9.533 9.825 12.99 21.422 12.94 34.914l.013 2.697c.013 2.964.011 5.928.01 8.893q.008 3.199.02 6.398c.018 5.784.022 11.567.024 17.35q.001 5.43.01 10.858.028 18.963.026 37.928c-.002 11.756.02 23.511.051 35.267q.038 15.172.036 30.343c0 6.03.005 12.062.026 18.093q.029 8.52.005 17.04-.003 3.11.015 6.22c.092 16.902-.73 33.512-12.363 46.882-14.947 14.75-34.448 15.181-54.13 15.058q-2.392-.005-4.785-.006c-5.846-.01-11.692-.038-17.538-.064L82 301v109H0z"/>

<path style="stroke:none;stroke-width:1;stroke-dasharray:none;stroke-linecap:butt;stroke-dashoffset:0;stroke-linejoin:miter;stroke-miterlimit:4;fill:#010101;fill-rule:nonzero;opacity:1" vector-effect="non-scaling-stroke" transform="translate(732 284)" d="M0 0h82l4.063 20a3235 3235 0 0 0 11.133 52.356c3.579 16.215 7.056 32.44 10.068 48.77 1.314 7.033 2.93 13.952 4.736 20.874l.607-2.933c3.682-17.747 7.427-35.472 11.518-53.13a1286 1286 0 0 0 7.575-34.894c2.368-11.589 5.01-23.111 7.673-34.635l.506-2.19q.683-2.95 1.368-5.898A333 333 0 0 0 143 0h81a485 485 0 0 1-5.187 21.125l-.93 3.455c-2.255 8.298-4.706 16.521-7.257 24.733-2.509 8.141-4.743 16.345-6.878 24.591-1.83 6.978-3.88 13.869-5.998 20.764-3.597 11.716-6.978 23.487-10.302 35.283q-1.418 5.024-2.843 10.047c-3.51 12.415-6.946 24.848-10.234 37.324-1.416 5.33-2.932 10.534-4.893 15.691-.921 3.831.403 7.313 1.522 10.987q.57 2.325 1.113 4.656c2.1 8.536 4.323 17.004 6.87 25.416 2.344 7.838 4.34 15.767 6.343 23.698a462 462 0 0 0 5.06 18.308c2.62 8.78 4.944 17.628 7.236 26.499A2787 2787 0 0 0 212 356q1.313 4.717 2.625 9.438l.58 2.08a4100 4100 0 0 1 7.066 25.814 720 720 0 0 0 1.576 5.668l.833 2.973.765 2.7C226 407 226 407 226 410h-83l-3.937-18.437c-6.283-29.333-12.649-58.64-19.453-87.857-2.76-11.86-5.383-23.731-7.61-35.706-4.247 18.384-8.246 36.81-12.078 55.285a1911 1911 0 0 1-8.458 38.79c-2.315 10.136-4.447 20.301-6.512 30.49l-.69 3.4-.595 2.957C82.863 402.634 81.92 406.315 81 410H-2c1.315-6.576 2.678-13.069 4.313-19.562l.66-2.637c1.525-6.006 3.215-11.944 5.01-17.874 2.023-6.762 3.768-13.59 5.517-20.427 1.887-7.37 3.79-14.72 6-22 2.557-8.43 4.721-16.957 6.912-25.489 2.214-8.61 4.546-17.177 6.952-25.734 1.211-4.337 2.39-8.682 3.574-13.027.25-.923.502-1.847.761-2.798l1.535-5.638q2.251-8.27 4.51-16.537 1.937-7.098 3.861-14.199l.803-2.957q.752-2.769 1.5-5.539l.697-2.566.674-2.522a78 78 0 0 1 1.634-5.004c2.306-6.507 2.035-10.916.087-17.49l-.72-2.523a413 413 0 0 0-2.468-7.977A603 603 0 0 1 42.5 152c-2.174-8.222-4.477-16.379-7-24.5s-4.826-16.279-7-24.5c-2.18-8.24-4.481-16.42-7-24.562-5.473-17.708-10.296-35.593-15.07-53.5C4.652 18.309 2.772 11.743.628 5.223 0 3 0 3 0 0"/>

<path style="stroke:none;stroke-width:1;stroke-dasharray:none;stroke-linecap:butt;stroke-dashoffset:0;stroke-linejoin:miter;stroke-miterlimit:4;fill:#000;fill-rule:nonzero;opacity:1" vector-effect="non-scaling-stroke" transform="translate(541 284)" d="M0 0h160l2 12q.903 4.975 1.84 9.945l1.033 5.516 1.593 8.469c1.828 9.718 3.635 19.438 5.288 29.187l.386 2.245c.548 3.285.86 6.294.86 9.638H84v97h68v71H84v89h86c-1.257 8.798-2.57 17.443-4.312 26.137l-.65 3.29q-1.015 5.132-2.038 10.26-1.02 5.145-2.038 10.292-.63 3.18-1.262 6.358l-.587 2.955-.506 2.543c-.904 4.715-1.748 9.442-2.607 14.165H0z"/>

<path style="stroke:none;stroke-width:1;stroke-dasharray:none;stroke-linecap:butt;stroke-dashoffset:0;stroke-linejoin:miter;stroke-miterlimit:4;fill:#010101;fill-rule:nonzero;opacity:1" vector-effect="non-scaling-stroke" transform="translate(348 284)" d="M0 0h85v334h82c-1.125 11.249-1.125 11.249-1.908 15.167l-.526 2.672-.562 2.778-.587 2.965q-.922 4.648-1.855 9.293a11135 11135 0 0 0-3.018 15.186c-1.14 5.766-2.204 11.532-3.072 17.346-.65 3.567-1.593 7.075-2.472 10.593H0z"/>

<path style="stroke:none;stroke-width:1;stroke-dasharray:none;stroke-linecap:butt;stroke-dashoffset:0;stroke-linejoin:miter;stroke-miterlimit:4;fill:#fefefe;fill-rule:nonzero;opacity:1" vector-effect="non-scaling-stroke" transform="translate(188 356)" d="M0 0c44 0 44 0 48 3 .498 2.781.498 2.781.494 6.225l.026 3.951-.034 4.345q.003 2.285.011 4.568c.01 4.139-.005 8.277-.026 12.415-.017 4.327-.014 8.654-.013 12.98q-.005 10.9-.046 21.8c-.032 8.407-.042 16.813-.04 25.22q-.001 12.12-.026 24.24-.011 5.163-.012 10.325-.003 6.078-.035 12.154a949 949 0 0 0-.007 4.467 823 823 0 0 1-.025 6.085l-.01 3.444C48 158 48 158 46 161H0z"/>

</svg>